<svg width="32" height="32" viewBox="0 0 32 32" fill="none" xmlns="http://www.w3.org/2000/svg">
<path d="M4.83198 20C6.67829 21.8489 9.137 22.9588 11.7449 23.1207C14.3528 23.2825 16.9299 22.4851 18.9906 20.8787L26.0813 27.9693C26.3328 28.2122 26.6696 28.3466 27.0192 28.3436C27.3688 28.3405 27.7032 28.2003 27.9504 27.9531C28.1976 27.7059 28.3378 27.3715 28.3409 27.0219C28.3439 26.6723 28.2095 26.3355 27.9666 26.084L20.876 18.9933C22.5537 16.8402 23.3469 14.1282 23.0938 11.4104C22.8407 8.69251 21.5604 6.17359 19.514 4.36728C17.4675 2.56097 14.8091 1.60334 12.0809 1.6897C9.35263 1.77605 6.7601 2.89988 4.83198 4.83199C3.83571 5.82776 3.0454 7.01006 2.50619 8.31135C1.96698 9.61264 1.68945 11.0074 1.68945 12.416C1.68945 13.8246 1.96698 15.2194 2.50619 16.5206C3.0454 17.8219 3.83571 19.0042 4.83198 20ZM6.71731 6.71999C8.03541 5.40192 9.76974 4.58165 11.6248 4.39892C13.4799 4.2162 15.3409 4.68233 16.8909 5.71789C18.4408 6.75346 19.5837 8.29439 20.1249 10.0781C20.6661 11.8619 20.5721 13.7781 19.8589 15.5003C19.1456 17.2225 17.8574 18.6442 16.2135 19.523C14.5696 20.4019 12.6719 20.6836 10.8436 20.3201C9.01533 19.9567 7.36964 18.9706 6.18691 17.5298C5.00418 16.089 4.35759 14.2827 4.35731 12.4187C4.35365 11.3594 4.56039 10.31 4.96551 9.3313C5.37063 8.3526 5.96608 7.46409 6.71731 6.71733V6.71999Z" fill="white"/>
</svg>
